<svg width="370" height="370" viewBox="0 0 370 370" fill="none" xmlns="http://www.w3.org/2000/svg">
<g clip-path="url(#clip0_199_3)">
<path fill-rule="evenodd" clip-rule="evenodd" d="M236.78 53.158C241.396 54.655 244.53 58.9408 244.552 63.7934C244.644 65.9229 244.652 67.656 244.652 67.656C244.652 67.656 244.578 126.753 174.604 181.154C146.139 203.285 121.451 239.258 115.003 272.892C114.156 277.389 110.674 280.934 106.19 281.856C101.706 282.778 97.1093 280.899 94.5534 277.094C74.6117 247.543 51.9971 192.316 89.7078 126.918C123.712 67.9521 186.496 37.7979 236.78 53.158Z" fill="black"/>
<path fill-rule="evenodd" clip-rule="evenodd" d="M138.222 313.451C133.399 311.908 130.114 307.435 130.094 302.37C129.997 300.398 129.987 298.844 129.987 298.844C129.987 298.844 130.061 239.747 200.034 185.346C228.244 163.415 252.742 127.886 259.456 94.5189C260.385 89.8684 264.028 86.2303 268.685 85.321C273.345 84.4067 278.093 86.3934 280.707 90.3525C300.5 120.125 322.242 174.874 284.93 239.581C251.005 298.399 188.449 328.552 138.222 313.451Z" fill="black"/>
</g>
<defs>
<clipPath id="clip0_199_3">
<rect width="370" height="370" fill="white"/>
</clipPath>
</defs>
</svg>
