<svg width="49" height="57" viewBox="0 0 49 57" fill="none" xmlns="http://www.w3.org/2000/svg">
<path d="M25.6609 0.0468752C28.7302 1.78115e-07 31.7771 0.024375 34.8221 0C34.9234 3.80812 36.4684 7.23563 38.9265 9.77438L38.9227 9.77063C41.5684 12.1538 45.0109 13.6988 48.8059 13.9613L48.8584 13.965V23.4075C45.2734 23.3175 41.9021 22.4906 38.8627 21.0694L39.0165 21.1331C37.5465 20.4262 36.3034 19.7006 35.1221 18.8906L35.2196 18.9544C35.1971 25.7963 35.2421 32.6381 35.1727 39.4556C34.9796 42.93 33.8246 46.0987 31.9721 48.7444L32.0096 48.6862C28.9121 53.1225 23.8946 56.0344 18.189 56.2069H18.1627C17.9321 56.2181 17.6602 56.2238 17.3865 56.2238C14.1427 56.2238 11.1109 55.32 8.52711 53.7506L8.60211 53.7938C3.89961 50.9644 0.65586 46.1231 0.0558595 40.4925L0.0483596 40.4156C0.00148463 39.2438 -0.0210155 38.0719 0.0258595 36.9244C0.944609 27.9638 8.45211 21.0319 17.5777 21.0319C18.6034 21.0319 19.6084 21.12 20.5852 21.2869L20.4802 21.2719C20.5271 24.7388 20.3865 28.2075 20.3865 31.6744C19.5934 31.3875 18.6784 31.2206 17.724 31.2206C14.2215 31.2206 11.2421 33.4594 10.1396 36.585L10.1227 36.6412C9.87336 37.4419 9.72899 38.3625 9.72899 39.315C9.72899 39.7013 9.75336 40.0838 9.79836 40.4588L9.79461 40.4138C10.4171 44.25 13.7059 47.145 17.6715 47.145C17.7859 47.145 17.8984 47.1431 18.0109 47.1375H17.994C20.7371 47.055 23.1184 45.5794 24.4646 43.3987L24.4834 43.365C24.984 42.6675 25.3271 41.8237 25.4415 40.9069L25.4434 40.8806C25.6777 36.6862 25.584 32.5162 25.6065 28.3219C25.629 18.8794 25.584 9.45937 25.6534 0.0412501L25.6609 0.0468752Z" fill="white"/>
</svg>
