<svg width="424" height="424" viewBox="0 0 424 424" fill="none" xmlns="http://www.w3.org/2000/svg">
<path d="M211.987 0C155.765 0 101.846 22.3375 62.0903 62.0903C22.3348 101.843 0 155.764 0 211.987C0 268.209 22.3375 322.122 62.0903 361.869C101.844 401.624 155.764 423.96 211.987 423.96C268.209 423.96 322.122 401.622 361.869 361.869C401.624 322.115 423.96 268.201 423.96 211.987C423.96 155.772 401.622 101.846 361.869 62.0903C322.115 22.3362 268.201 0 211.987 0ZM384.737 221.545H349.335C346.006 268.473 318.92 310.45 277.534 332.819C236.142 355.187 186.192 354.853 145.108 331.926C104.023 309.005 77.502 266.673 74.8039 219.703C72.1063 172.733 93.5977 127.636 131.786 100.16C169.975 72.6787 219.559 66.6212 263.236 84.1046C306.919 101.584 338.632 140.179 347.319 186.419H384.736C394.436 186.419 402.298 194.282 402.298 203.982C402.298 213.681 394.435 221.544 384.736 221.544L384.737 221.545Z" fill="#6F3241"/>
<path d="M211.988 101.743C182.753 101.743 154.713 113.358 134.041 134.031C113.368 154.704 101.754 182.744 101.754 211.977C101.754 241.211 113.369 269.247 134.041 289.92C154.714 310.593 182.754 322.208 211.988 322.208C241.222 322.208 269.258 310.593 289.931 289.92C310.604 269.247 322.218 241.213 322.218 211.977C322.218 182.742 310.604 154.702 289.931 134.031C269.258 113.357 241.223 101.743 211.988 101.743ZM259.094 216.616L228.137 253.834C224.558 258.102 219.272 260.565 213.705 260.565C208.132 260.565 202.847 258.102 199.267 253.834L167.908 216.751C162.424 210.824 159.711 202.857 160.436 194.816C161.104 186.744 165.137 179.324 171.549 174.378C177.962 169.431 186.16 167.412 194.137 168.816C202.109 170.224 209.128 174.92 213.463 181.761C217.82 174.999 224.796 170.365 232.722 168.977C240.643 167.595 248.782 169.583 255.169 174.461C261.561 179.345 265.615 186.676 266.361 194.68C267.107 202.689 264.472 210.641 259.093 216.621L259.094 216.616Z" fill="#6F3241"/>
</svg>
